<?xml version="1.0" encoding="UTF-8" standalone="no"?>
<svg
   xmlns:dc="http://purl.org/dc/elements/1.1/"
   xmlns:cc="http://creativecommons.org/ns#"
   xmlns:rdf="http://www.w3.org/1999/02/22-rdf-syntax-ns#"
   xmlns:svg="http://www.w3.org/2000/svg"
   xmlns="http://www.w3.org/2000/svg"
   width="32"
   height="32"
   viewBox="0 0 32 32"
   fill="none"
   version="1.1"
   id="svg6">
  <metadata
     id="metadata12">
    <rdf:RDF>
      <cc:Work
         rdf:about="">
        <dc:format>image/svg+xml</dc:format>
        <dc:type
           rdf:resource="http://purl.org/dc/dcmitype/StillImage" />
        <dc:title></dc:title>
      </cc:Work>
    </rdf:RDF>
  </metadata>
  <defs
     id="defs10" />
  <path
     fill-rule="evenodd"
     clip-rule="evenodd"
     d="M29.1531 6.8877C30.948 9.47379 31.9999 12.614 31.9999 16.0003C31.9999 19.3866 30.948 22.5271 29.1531 25.1129L25.0085 20.9684C25.8225 19.4957 26.2858 17.8019 26.2858 16.0003C26.2858 14.1987 25.8225 12.5052 25.0085 11.0325L29.1531 6.8877Z"
     fill="#8FC7FF"
     id="path2"
     style="fill:#808080;fill-opacity:1" />
  <path
     fill-rule="evenodd"
     clip-rule="evenodd"
     d="M25.1126 2.84685L20.9678 6.99138C19.4951 6.17745 17.8016 5.71417 16 5.71417C10.3194 5.71417 5.71418 10.3194 5.71418 16C5.71418 21.6806 10.3194 26.2858 16 26.2858C17.8016 26.2858 19.4951 25.8226 20.9678 25.0086L25.1126 29.1532C22.5265 30.948 19.3863 32 16 32C7.16352 32 0 24.8365 0 16C0 7.16351 7.16352 0 16 0C19.3863 0 22.5265 1.05197 25.1126 2.84685Z"
     fill="#297EFF"
     id="path4"
     style="fill:#404040;fill-opacity:1" />
</svg>
